<svg width="102" height="35" viewBox="0 0 102 35" fill="none" xmlns="http://www.w3.org/2000/svg">
<path fill-rule="evenodd" clip-rule="evenodd" d="M96.4388 1.11978C93.3384 2.82273 90.4008 5.56259 86.8756 10.0388C82.7546 15.2716 80.3727 18.8518 76.0375 26.3288C74.991 28.1334 74.9579 28.0888 75.7328 25.9182C77.6259 20.6173 82.4689 4.37476 82.4689 3.32732C82.4689 2.46674 81.8752 2.84993 80.7609 4.42943C77.9868 8.36251 73.7606 11.3059 65.5115 15.0503C59.5757 17.7445 58.0634 18.7953 57.5825 20.5596C57.2951 21.6134 57.4879 22.5603 58.1445 23.321C58.7105 23.977 59.5337 24.091 59.5337 23.5135C59.5337 23.3018 59.3729 23.1285 59.1763 23.1285C58.6871 23.1285 58.3138 22.3146 58.3138 21.2474C58.3138 19.5727 59.7443 18.5574 66.8535 15.1874C72.8466 12.3464 76.2957 10.2718 78.7988 8.00216C79.2631 7.58123 79.6784 7.27452 79.722 7.32047C79.7657 7.36615 79.6442 7.91002 79.4524 8.52883C79.2604 9.14764 78.6463 11.213 78.0875 13.1187C77.529 15.0244 76.1849 19.2978 75.1008 22.6152C73.0999 28.7386 72.2125 32.1882 72.5475 32.5406C72.881 32.8914 73.5488 32.2138 74.3879 30.6739C79.986 20.3971 85.5175 12.2889 90.6064 6.90159C93.4033 3.94049 95.1278 2.55297 97.2986 1.51786C98.9029 0.752493 99.9479 0.668052 101.439 1.18266C102.229 1.45523 102.166 0.709887 101.367 0.326948C100.084 -0.288013 98.5535 -0.0418745 96.4388 1.11978ZM25.863 5.40269C24.5513 5.82515 22.7643 6.96499 21.7488 8.02731C19.3992 10.4851 18.3891 12.755 18.6158 15.0668C18.6946 15.8696 18.6494 16.5146 18.5082 16.6065C17.9994 16.9373 14.4101 17.7527 11.8336 18.1231C4.94496 19.113 3.66059 19.3797 2.04806 20.1564C0.617785 20.8452 0 21.7723 0 23.2299C0 24.3464 1.01647 25.7424 1.48005 25.2624C1.70916 25.0252 1.68964 24.8692 1.39099 24.555C0.422592 23.5366 0.723677 21.953 2.04952 21.0911C3.14992 20.3756 5.7716 19.7804 12.3215 18.7591C14.2003 18.466 16.5414 17.9991 17.5239 17.7217C19.2721 17.2276 19.3246 17.2271 19.9638 17.6968C20.3232 17.9609 20.9163 18.2532 21.2818 18.3461C21.8847 18.4994 21.7061 18.6459 19.3619 19.9218C13.1243 23.3166 9.46538 27.4743 9.41463 31.2246C9.37754 33.9607 10.6331 35.0445 13.7855 34.9986C16.2576 34.9624 19.4834 33.436 24.3991 29.9768C28.2873 27.2402 32.6948 23.3852 32.6948 22.7204C32.6948 22.1393 32.4617 22.2746 30.7638 23.8423C25.8108 28.4157 18.6841 33.2207 15.4934 34.138C11.6079 35.2553 9.66667 32.8555 11.4066 29.0856C13.1594 25.2883 18.8768 20.7331 24.0592 19.005C26.2275 18.2817 26.5072 17.9953 25.0439 17.9953C23.6886 17.9953 21.794 17.5461 21.124 17.0662C20.6611 16.7343 20.6611 16.7274 21.124 16.5487C28.1573 13.8312 31.6781 10.7022 31.1342 7.65259C30.7865 5.70273 28.2685 4.62808 25.863 5.40269ZM29.8559 6.97757C31.2001 8.08968 30.308 10.4928 27.8938 12.2635C26.2085 13.4993 21.3026 15.942 20.5055 15.942C20.0485 15.942 19.9731 14.3645 20.3671 13.0481C20.8981 11.2749 22.1253 9.5411 23.7803 8.22674C26.0738 6.40495 28.5491 5.89625 29.8559 6.97757ZM50.4534 9.41097C49.1744 10.1412 47.8317 13.4323 47.8251 15.8534C47.8222 16.8811 47.7722 16.9494 46.4385 17.7412C43.1778 19.6769 41.1483 22.6829 41.1251 25.6112C41.1154 26.8352 41.2293 27.3609 41.626 27.9212C43.3264 30.3238 46.8199 30.2044 49.3889 27.6558L50.3441 26.7082L50.9741 27.3432C52.1037 28.4812 54.1045 29.0792 55.2439 28.6193C56.0215 28.3054 55.5928 28.1237 54.0866 28.1285C52.7686 28.1326 52.4129 28.0287 51.6467 27.4145C50.8018 26.7372 50.4873 25.8964 50.9633 25.5868C51.6907 25.114 53.1805 20.2916 52.8657 19.429C52.5529 18.5715 52.2923 19.0828 52.3109 20.5172C52.3267 21.7585 52.1708 22.3519 51.3932 24.0071L50.4561 26.0013L49.9849 25.1862C49.3074 24.0142 48.348 20.8714 48.174 19.2537L48.0247 17.8669L49.6567 16.7156C51.5377 15.3884 52.5781 14.2298 53.2168 12.7504C54.1318 10.6311 53.6084 9.00417 52.0171 9.02239C51.5216 9.02804 50.8179 9.20282 50.4534 9.41097ZM52.4092 9.57678C52.8467 10.037 52.763 11.4735 52.2352 12.5618C51.719 13.6261 50.0174 15.4628 48.7901 16.2803L47.9971 16.8085L48.1662 15.5411C48.4409 13.4829 48.9787 11.7676 49.6477 10.8144C50.6181 9.43202 51.7775 8.91228 52.4092 9.57678ZM47.8251 19.2144C47.829 20.5475 48.3731 22.5682 49.2715 24.5879L50.0308 26.2947L49.3535 27.0395C47.2605 29.341 44.4424 29.813 42.9265 28.1157C42.4178 27.5459 42.3334 27.2046 42.339 25.7385C42.3483 23.2589 43.0751 21.8909 45.4643 19.8561C46.5 18.9739 47.4542 18.2519 47.5848 18.2519C47.7153 18.2519 47.8234 18.6852 47.8251 19.2144Z" fill="#F4F4F4"/>
</svg>
